<svg id="highlight_continents" data-name="highlight continents" xmlns="http://www.w3.org/2000/svg" width="402" height="210" viewBox="0 0 402 210">
  <defs>
    <style>
      .cls-1 {
        fill: #fc8d59;
      }
    </style>
  </defs>
  <title>continent-as</title>
  <g id="asia">
    <path id="path2335" class="cls-1" d="M267.669,7.659c-1.153.288-1.238.322-.848.475.322.135.322.152-.034.152-.56.017-.645.34-.2.8.424.441.763.525.882.186q.1-.255.1,0a.276.276,0,0,0,.272.221.245.245,0,0,0,.254-.221c0-.136.051-.136.153.034a.37.37,0,0,0,.424.136,1.965,1.965,0,0,1,1,.135,20.921,20.921,0,0,0,4.308.594c.764,0,1.154-.3.577-.458a.445.445,0,0,1-.356-.39c0-.39-.407-.526-1.73-.611-1.34-.084-1.731-.2-1.51-.475.136-.152-.085-.254-.882-.424C268.416,7.472,268.382,7.472,267.669,7.659Z"/>
    <path id="path2337" class="cls-1" d="M278.678,11.34c-.458.2-.644.661-.39.966.153.2.051.238-.577.238-.424,0-.8.068-.831.153-.017.084-.339.2-.695.254-.475.068-.611.051-.526-.085.169-.288-3.121-.051-3.41.255a3.46,3.46,0,0,1-1.374.322,4.528,4.528,0,0,0-1.543.39,1.239,1.239,0,0,1-.832.17c-.237-.068-.407-.034-.407.068,0,.084-.119.169-.254.169a.309.309,0,0,0-.272.289c0,.186-.051.22-.1.084-.119-.3-.679-.254-.8.068a.433.433,0,0,0,0,.39c.068.051.153,0,.187-.1.051-.153.17-.153.475.051a1.2,1.2,0,0,0,.695.2.322.322,0,0,1,.357.153c.1.271-1.239.3-1.391.051a.473.473,0,0,0-.391-.17c-.237,0-.237.034-.05.153.356.22-.17.339-1.832.39l-1.425.034.492.39c.271.22.661.56.848.746a2.057,2.057,0,0,0,1.153.441c.424.051.781.153.781.238,0,.068.135.169.305.2.153.051.034.085-.272.1a2.432,2.432,0,0,1-1.017-.22,13.294,13.294,0,0,0-3.189-.73.752.752,0,0,0-.73.187c-.2.237-.169.271.17.288.441.017.339.068-.424.238-.475.1-.475.118-.153.339a4.308,4.308,0,0,0,.916.407c.56.187.56.187-.237.119-.832-.068-1.29-.407-1.306-.967a1.645,1.645,0,0,0-.984-1,1.563,1.563,0,0,1-.543-.2c-.238-.153-.373-.17-.526-.017-.136.135-.034.237.356.373a1.17,1.17,0,0,0,.73.068c.084-.051.118-.017.051.084a.218.218,0,0,0,.067.289c.306.186.17.39-.339.509-.271.068-.509.22-.509.339a.312.312,0,0,1-.2.288c-.1.034.237.289.78.56.916.458.95.509.848,1.035-.085.441-.034.594.255.78a.677.677,0,0,1,.356.458c0,.187.254.2,1.238.136,1.052-.085,1.137-.068.577.085-.865.237-.967.576-.356,1.068.39.323.458.441.288.611a.973.973,0,0,0-.221.594c0,.288-.135.407-.508.492-.306.067-.509.22-.509.373,0,.2-.119.237-.543.152a1.651,1.651,0,0,1-.73-.288c-.118-.119-.084-.136.1-.068s.356-.085.577-.593c.17-.374.356-.679.424-.679.085,0,.119-.254.1-.56-.017-.475-.119-.593-.73-.865-.407-.17-.729-.407-.729-.509a2.669,2.669,0,0,0-.373-.78,3.628,3.628,0,0,1-.424-.9,1.2,1.2,0,0,0-.984-.9c-.322-.085-.39-.17-.272-.289a1,1,0,0,0-.05-1.187c-.17-.22-.594-.356-1.408-.441-.7-.085-.916-.153-.56-.17.56-.034.577-.034.271-.271-.424-.322-1.7-.356-1.594-.051a.441.441,0,0,1-.153.441,1.584,1.584,0,0,0-.22.882c0,.577-.068.713-.509.933-.628.322-.662.713-.085.933a.581.581,0,0,1,.424.662c0,.543.373.95.729.814a1.164,1.164,0,0,1,.73.237,5.171,5.171,0,0,0,.882.492c.373.153.492.424.254.56a4.091,4.091,0,0,1-1.323-.407c-1.713-.7-2-.662-1.221.153a3.151,3.151,0,0,1,.627.8c-.033.594-1.882,1.9-3.6,2.544a3.576,3.576,0,0,0-.984.509c-.118.136.119.831.781,2.307a14.443,14.443,0,0,1,1.425,5.954,2.639,2.639,0,0,0,.865,2.2,1.2,1.2,0,0,1-.662,2.172,1.221,1.221,0,0,0-.8.339c-.288.3-.288.339.1.831.22.272.593.78.831,1.1.577.814,1.136.814,1.849.017.661-.764,1.187-.781,1.611-.068.272.441.272.628.1,1.306-.169.729-.169.814.153,1.052,1.119.831,1.119.831.9.984-.289.2.068.508.933.8,1.136.39.865,1.374-.339,1.221-.458-.068-.679-.017-.747.153-.119.3-.526.3-.831-.017a1.032,1.032,0,0,0-.594-.255c-.169,0-.322-.084-.322-.186,0-.136-.254-.17-.814-.085a3.283,3.283,0,0,1-1.815-.271c-1.1-.391-3.189-.492-3.529-.153a2.153,2.153,0,0,1-1.034.187,6.668,6.668,0,0,0-1.51.186c-.628.17-.628.17-.526.882a3.156,3.156,0,0,0,1.035,2.036,1.436,1.436,0,0,1,.526,1.238.867.867,0,0,0,.424.95c.254.187.458.441.458.56,0,.3.577.475,1.187.339a.574.574,0,0,1,.764.322c.271.39.491,2.019.254,1.883a5.73,5.73,0,0,0-.967-.152c-.78-.068-.882-.034-1.052.356a.893.893,0,0,0-.1.577c.067.084-.136.152-.424.152-.475,0-.509.034-.34.339a.614.614,0,0,0,.424.34c.136,0,.374.22.543.509.153.271.356.508.424.508s.136.153.136.357c0,.22.068.3.2.22.1-.068.272,0,.374.136a1.085,1.085,0,0,0,.61.339c.577.068.662.238.56,1-.051.373-.034.662.068.662.271,0,.763,1.034.662,1.408-.119.491.271,1.238.593,1.17.2-.034.238.085.187.509-.068.424-.034.509.186.424.425-.153.747.407.933,1.577a13.8,13.8,0,0,0,.272,1.358c.085.22-.136.322-1.052.559a2.922,2.922,0,0,1-3-.559,2.245,2.245,0,0,0-1.018-.509c-.509,0-.933-.509-1.052-1.273-.068-.441-.034-.678.136-.763a1.52,1.52,0,0,0,.237-.967c0-.78.017-.814.475-.814.255.017.458-.068.458-.17,0-.118-.237-.152-.559-.118-.815.084-4.258-1.68-5.717-2.935l-1.1-.967-.916.1a1.921,1.921,0,0,1-1.7-.39,5.187,5.187,0,0,0-1.374-.611,4.354,4.354,0,0,1-1.153-.441,1.007,1.007,0,0,0-1-.136l-.441.17.39.407a5.673,5.673,0,0,0,1.34.865,2.317,2.317,0,0,1,1.272,1.086c.577,1.187-.169,1.7-2.527,1.781a4.155,4.155,0,0,1-1.612-.1c0-.085-.22-.153-.492-.153a.9.9,0,0,1-.61-.169.394.394,0,0,0-.424-.085c-.221.068-.374-.017-.509-.254a.394.394,0,0,0-.543-.238.556.556,0,0,1-.628-.22c-.254-.306-.39-.323-1.662-.221a4.3,4.3,0,0,0-2.867,1.12c-.136.169-.475.186-1.408.084-1.255-.118-1.764.034-1.34.458.407.408-.237.645-1.815.679a4.531,4.531,0,0,0-1.577.187c-.034.1-.17.118-.306.067s-.237,0-.237.1.118.187.254.187c.153,0,.255.152.255.424,0,.39.135.492.627.441.1-.017.17.1.136.271a.83.83,0,0,0,.068.475,2.106,2.106,0,0,1,.135.509c.017.187-.016.238-.05.119-.153-.339-.526-.221-.492.17.017.254.2.441.61.576.323.119.475.221.357.221-.17.017-.17.085,0,.39a1.632,1.632,0,0,0,.373.492c.068.068,0,.2-.17.3-.339.187-.271.221.526.238.271,0,.288.017.051.068-.17.05-.305.152-.305.254,0,.085.118.136.254.068.136-.051.254-.017.254.068,0,.1.119.169.255.169s.254-.085.254-.186c0-.272.8-.034,1.188.356a1.147,1.147,0,0,0,1.017.3c.662-.051.764-.169.7-.78-.068-.492,1.306-.051,2.086.678a1.988,1.988,0,0,0,2.358-.3.719.719,0,0,1,1.137-.2c.254.169.39.152.678-.119.424-.373.662-.221.272.186-.2.187-.238.34-.119.458.1.1.1.306.017.543a.63.63,0,0,0-.017.526,2.346,2.346,0,0,1,.2,1.527,13.866,13.866,0,0,0-1.035,3.138c-.2,1.052-.577,1.527-1.2,1.527-.22.017-.661.05-.95.084-.491.068-.559.153-.559.594a4.353,4.353,0,0,0,.7,2.341,1.252,1.252,0,0,1,.322.577,4.853,4.853,0,0,0,1.442,1.645,1,1,0,0,0,.357-.254,1.029,1.029,0,0,1,.593-.255.3.3,0,0,1,.323.255c0,.135.084.254.169.254a.17.17,0,0,1,.17.17,1.132,1.132,0,0,0,.305.509,5.934,5.934,0,0,1,.628.967,5.792,5.792,0,0,0,.644.983c.408.441.849,1.273.73,1.391-.153.153.458,1.069.695,1.069a.384.384,0,0,1,.323.255c.067.135.186.2.288.135.085-.051.119-.017.068.068-.068.1.034.373.22.611a1.556,1.556,0,0,1,.34.678.5.5,0,0,0,.186.39c.119.068.153.357.085.747-.068.475-.034.7.17.865a.621.621,0,0,1,.186.526c-.068.2.051.407.306.576a1.36,1.36,0,0,1,.508.543,1.485,1.485,0,0,0,.577.628c.272.17.475.373.441.441-.051.051.119.187.339.288a.66.66,0,0,1,.425.73.965.965,0,0,0,.305.763c.153.119.288.288.288.373a2.776,2.776,0,0,0,.645.781,2.477,2.477,0,0,1,.627.882c0,.135.068.237.153.237s.238.238.339.543c.187.526.187.526-.152.22-.187-.169-.289-.373-.238-.441.051-.084-.034-.1-.186-.05-.17.067-.255.033-.221-.119.034-.119-.085-.255-.237-.289-.221-.033-.272.017-.2.255.085.288.085.288-.153,0-.135-.17-.305-.238-.339-.153-.119.17.8,1.595.933,1.459.153-.136.865.628.9.933a1.044,1.044,0,0,0,.119.441,16.471,16.471,0,0,1,.729,2.46c.051.814.289,1.153.882,1.272a1.165,1.165,0,0,0,.781-.068.418.418,0,0,1,.373-.085c.119.051.475-.152.78-.424a1.628,1.628,0,0,1,1.1-.526,3.313,3.313,0,0,0,1.849-.678,1.055,1.055,0,0,1,.678-.17,1.033,1.033,0,0,0,.916-.441,4.209,4.209,0,0,1,1.747-.933c1.646-.594,2.443-1.035,2.375-1.34-.1-.458.17-.814.865-1.1a4.526,4.526,0,0,1,2.053-.593c.628,0,.882-.221.984-.848.034-.323.169-.441.56-.475.627-.085.933-.323.933-.73,0-.373.61-.831,1.119-.831.322,0,.356-.085.339-1.035-.017-1.1.17-1.391.611-.933.221.221.288.2.509-.051.254-.305.22-.763-.051-.593-.288.169-.153-.255.254-.73a4.282,4.282,0,0,0,.95-1.832c0-.152-.152-.254-.356-.254a.454.454,0,0,1-.441-.339c-.051-.187-.153-.34-.237-.34a.172.172,0,0,1-.153-.186c0-.356-.543-.713-1.323-.848a2.586,2.586,0,0,1-2.273-2.884c0-1.052-.2-1.255-.56-.543a9.987,9.987,0,0,1-2.595,2.629c-.119-.034-.2,0-.2.085s-.271.119-.594.085-.593-.136-.593-.221a.157.157,0,0,0-.17-.152c-.085,0-.17.1-.17.237,0,.39-.339.492-.661.2a1,1,0,0,0-.509-.272c-.136,0-.17-.118-.068-.39a3.58,3.58,0,0,0-.169-2.188c-.408-.254-.611-.119-.815.543l-.2.678-.323-.458c-.339-.542-.39-.729-.135-.729.1,0,.169.119.169.271,0,.136.085.2.17.153a.4.4,0,0,0-.17-.712c-.186-.051-.356-.153-.356-.238-.017-.085-.034-.22-.051-.322,0-.085-.169-.272-.356-.407a.763.763,0,0,1-.339-.475.2.2,0,0,0-.221-.187c-.118.034-.2-.017-.2-.1s-.153-.22-.34-.271a.451.451,0,0,1-.339-.356c0-.136-.068-.238-.136-.238a3.346,3.346,0,0,1-.78-1.967c.068-.2.051-.255-.051-.119a.258.258,0,0,1-.39.051c-.22-.136-.22-.17,0-.17a.9.9,0,0,0,.543-.305c.56-.577.746-.679,1.052-.509a.844.844,0,0,0,.576.068c.2-.068.408.085.679.458a2.4,2.4,0,0,1,.373.746.293.293,0,0,0,.153.255,3.008,3.008,0,0,1,.627.882,2.045,2.045,0,0,0,1.086,1.017,3.842,3.842,0,0,1,1.086.662,1.648,1.648,0,0,0,.763.458c.221,0,.221.034.051.153-.17.1-.051.169.373.254.339.068.577.187.526.288-.068.085-.017.153.068.153a.185.185,0,0,0,.186-.17c0-.118.119-.118.34,0a.7.7,0,0,0,.526.085,2.226,2.226,0,0,1,.78-.186c.678-.085,1.119-.357.967-.594-.136-.237.576-.17.729.051a4.364,4.364,0,0,1,.305.9c.221.831.866,1.187,2.443,1.357a18.708,18.708,0,0,1,2.392.356,4.856,4.856,0,0,0,2.2.068c0-.068.305-.1.679-.051.407.068.678.034.678-.085,0-.1.221-.118.611-.034a5.346,5.346,0,0,0,1.713-.034c1.255-.186,1.578-.118,1.578.374a.3.3,0,0,0,.322.339c.2,0,.356.17.441.458.136.577.56,1.069.9,1.069a1.518,1.518,0,0,1,.729.508,2.368,2.368,0,0,0,2.053.916c.526-.084.543-.084.237.17a1.359,1.359,0,0,1-1.153.288c-.17-.016-.305.051-.305.17a9.943,9.943,0,0,0,2.663,2.528c.882-.034,2.154-1.188,1.764-1.578-.17-.17-.051-.8.153-.8.067,0,.084.186.034.424-.034.254,0,.424.118.424s.153.085.1.17c-.068.1.017.407.153.712a1.716,1.716,0,0,1,.169,1.12,2.823,2.823,0,0,0,.068,1.187c.441,1.544.764,2.731.967,3.63a12.814,12.814,0,0,0,.848,2.2c.356.679.781,1.51.933,1.832a8.558,8.558,0,0,1,.56,1.595,8.036,8.036,0,0,0,.848,1.866,11.3,11.3,0,0,1,1.476,3.443,4.388,4.388,0,0,0,1.357,2.087c.492.254,1.1-.136,1.238-.815a.976.976,0,0,1,1.34-.61c.255.068.323.034.272-.119a.364.364,0,0,0-.323-.237c-.271,0-.271-.136-.084-.815.1-.339.254-.458.559-.458.374,0,.408-.051.306-.492a4.986,4.986,0,0,1,.051-2.425,5.451,5.451,0,0,0,.034-3.02c-.323-1.815-.238-2.307.441-2.137.322.085.424.034.508-.322.051-.238.2-.424.34-.424a1.024,1.024,0,0,0,1.085-.883c0-.254.068-.474.153-.474a10.707,10.707,0,0,0,2.511-2.545,3.451,3.451,0,0,1,1.187-1.1,5.755,5.755,0,0,0,1.035-.712c.39-.356.424-.56.339-1.391a.532.532,0,0,1,.2-.526c.135-.068.424-.2.644-.322.305-.153.407-.153.475.051.1.254.746.22,1.662-.068a3.2,3.2,0,0,1,.933-.17c.594-.017,1.29-.559,1.154-.9a.38.38,0,0,1,.034-.373c.085-.034.186.085.237.271.051.2.17.306.255.255.186-.119.373.271.373.763a3.706,3.706,0,0,0,1.136,1.9,2.584,2.584,0,0,1,.56.814c0,.1.136.153.306.119.339-.1.78.288.661.594a.762.762,0,0,0,.085.492c.1.22.085.3-.068.3s-.153.051,0,.2c.17.169.255.169.339.017q.306-.459.865.814a3.5,3.5,0,0,1,.255,2.052l-.1,1.273.475.135c.95.255,1.255.238,1.493-.118a3.886,3.886,0,0,1,.848-.747c.39-.271.611-.56.611-.8.017-.526,1.136,1.832,1.289,2.68A4.747,4.747,0,0,0,314,98.92a2.212,2.212,0,0,1,.238.9c0,.254.1.424.237.424s.322.237.424.526c.255.712.238.831-.068.729-.186-.085-.22-.034-.152.17.051.152.169.271.254.271.068,0,.051.237-.051.526-.136.39-.22.458-.322.288-.085-.119-.153-.152-.153-.051a.539.539,0,0,0,.594.543c.373-.034.56.492.271.78-.118.119-.254.1-.441-.05-.152-.136-.254-.136-.254-.034s.136.254.288.356c.323.169.407,1.323.17,2.307-.17.712.051,2.188.271,1.967.34-.339.8-.22.8.187,0,.322.033.339.169.136.119-.2.17-.2.17-.017a2.772,2.772,0,0,0,.509.865c.458.577.492.678.254.814-.254.136-.254.17-.017.356s.272.187.272-.084c0-.289.017-.289.254.034a2.137,2.137,0,0,1,.2,1.068,1.3,1.3,0,0,0,.152.831,1.746,1.746,0,0,1,.306.832,2.391,2.391,0,0,0,.525,1.17,1.549,1.549,0,0,1,.424.831c0,.272.323.594,1.239,1.205,1.34.9,1.645,1.187,1.577,1.475-.034.119-.017.153.017.068.153-.254.594-.119.492.153-.068.2-.034.254.153.169.17-.067.254.017.254.238,0,.187.085.339.187.339.119,0,.153-.152.1-.356-.068-.271-.051-.305.135-.153.153.136.255.136.34,0,.169-.271-.068-.509-.56-.526-.288-.016-.356-.05-.153-.1a.378.378,0,0,0,.289-.323c0-.135-.051-.22-.119-.186-.085.051-.153-.1-.153-.322a2.6,2.6,0,0,0-.492-1.018c-.407-.526-.458-.747-.458-1.815a5.56,5.56,0,0,0-.186-1.731,6.131,6.131,0,0,0-1.781-1.95c-.068,0-.272-.238-.441-.526-.221-.356-.408-.492-.611-.441-.526.136-.967-.339-1.2-1.272a2.837,2.837,0,0,0-.407-1.069c-.254-.2-.475-1.272-.271-1.272.17,0,.153-.441-.034-.611-.068-.068-.119.051-.119.254,0,.442-.475.679-.695.34a5.492,5.492,0,0,1,.254-2.867,8.214,8.214,0,0,0,.323-1.951c.033-.984.05-1.018.508-1.068.425-.051.458-.017.458.61s.017.662.594.679c.73.034,1.272.3,1.272.644,0,.153.119.238.306.2s.373.136.576.543a3.612,3.612,0,0,1,.306.8,1.465,1.465,0,0,0,.865.9c.085,0,.119-.1.051-.22s-.051-.153.034-.068c.152.152.169.22.22.712.034.407.356.305.356-.119,0-.322.034-.339.306-.1a2.381,2.381,0,0,0,.627.373c.238.085.272.152.119.254-.305.187-.237,2.053.085,2.053.119,0,.305-.153.424-.34a3.315,3.315,0,0,1,.933-.78,1.683,1.683,0,0,0,.984-1.51.155.155,0,0,1,.22-.118,3.457,3.457,0,0,0,1.714-.916,1.522,1.522,0,0,1,.644-.407c.238,0,.424-.882.323-1.561-.034-.254.017-.424.084-.373.085.051.153-.068.153-.255a.549.549,0,0,0-.153-.424,2.307,2.307,0,0,1-.237-.9,5,5,0,0,0-.356-1.323,2.235,2.235,0,0,1-.272-.78,1.619,1.619,0,0,0-.509-.746,1.84,1.84,0,0,1-.509-.7c0-.119-.135-.254-.322-.322a10.292,10.292,0,0,1-2.392-2.273,2.456,2.456,0,0,0-.576-.781,1.522,1.522,0,0,1-.577-1.374c0-.492.085-.8.22-.848a1.709,1.709,0,0,0,.509-.678c.153-.323.34-.543.424-.492.068.051.187-.034.238-.17a.317.317,0,0,1,.3-.22c.119.034.2-.068.2-.221-.034-.356,1.119-.763,1.577-.577a1.907,1.907,0,0,0,.713.1c.322-.034.373.017.288.238-.153.424.424,1.594.8,1.611.391,0,.526-.39.289-.848-.136-.254-.136-.339-.017-.271s.186-.017.186-.221.1-.373.221-.373a2.425,2.425,0,0,0,.373-.068,2.726,2.726,0,0,1,.39-.051.144.144,0,0,0,.1-.237c-.068-.1-.051-.136.068-.068a.23.23,0,0,0,.288-.051c.068-.119.255-.119.526-.017.611.237.8.2.679-.1-.051-.136-.034-.2.067-.153s.17.017.17-.084.085-.136.187-.068c.271.152.492-.272.407-.78-.068-.408-.068-.408.119.033s.814.679.814.323c0-.085.305-.323.695-.509.373-.2.645-.289.577-.187-.051.085-.017.17.068.17a.185.185,0,0,0,.186-.17c0-.1.051-.152.136-.152.594.1.933-.068,1.1-.509a.978.978,0,0,1,.526-.594,1.519,1.519,0,0,0,.695-.611c.187-.271.424-.509.543-.509.271,0,.611-.627.458-.882-.068-.1-.051-.152.034-.1.186.118.594-.289.458-.441-.068-.051.051-.1.254-.1.221,0,.373-.1.373-.272,0-.135-.067-.22-.152-.169-.221.135-.373-.611-.187-.831.1-.119.119-.255.051-.306-.051-.068-.017-.119.085-.119.119,0,.2-.152.2-.322a.594.594,0,0,1,.17-.441c.1-.051.17-.288.17-.509,0-.576.169-.933.441-.933a.244.244,0,0,0,.254-.22,1.932,1.932,0,0,0-.068-1.188c-.084-.186-.067-.271.068-.254.119.034.2-.3.238-1.018.017-.577-.034-1.052-.119-1.052a.168.168,0,0,0-.153.17c-.017.085-.034.238-.051.322-.034.34-.271.391-.542.1a.761.761,0,0,0-.679-.186c-.577.152-.356-.323.288-.611.509-.238.611-.39.323-.56-.1-.068-.136-.17-.085-.237.034-.085-.136-.187-.407-.238-.543-.119-.814-.543-.424-.7.118-.051.22,0,.186.1a.25.25,0,0,0,.187.255c.1.051.2-.034.2-.153,0-.2-.576-.712-1.441-1.289a2.551,2.551,0,0,1-.424-.56,5.5,5.5,0,0,0-2.206-2.341c-.763-.356-.831-.441-.729-.831a2.394,2.394,0,0,1,.594-.916c.492-.492.627-.746.271-.543-.119.068.034-.118.339-.424a1.671,1.671,0,0,1,1.069-.526c.407,0,.492-.067.492-.407,0-.526-.1-.576-1.052-.678a3.633,3.633,0,0,1-1.119-.255c-.357-.186-1.29-.084-1.154.136.034.051-.034.254-.169.424-.2.272-.306.3-.662.136a.688.688,0,0,1-.424-.492.9.9,0,0,0-.984-.865c-.78-.017-1.391-.441-1.391-.984,0-.339.068-.424.271-.339a.883.883,0,0,0,1.188-.56,1.445,1.445,0,0,1,.594-.78c.271-.187.492-.441.492-.56a.708.708,0,0,1,.9-.594c.678.136.9.475.627,1.035-.322.627-.305.763.051,1.035.288.2.288.254.051.508-.254.289-.2.526.085.526a3.56,3.56,0,0,0,.814-.7,1.97,1.97,0,0,1,1.442-.78,2.963,2.963,0,0,1,1.069.033.871.871,0,0,0,.441.1,1.176,1.176,0,0,1,.458.153c.288.153.339.356.339,1.323,0,.8.051,1.069.169.882.085-.136.17-.186.17-.085,0,.238.831.594.95.407.051-.084.221-.084.424.017.17.1.322.136.322.085s.187.034.424.187c.425.271.577.746.255.746-.288,0-.187.289.305.814.713.781.865,1,.764,1.12a1.251,1.251,0,0,0,.017,1.153.68.68,0,0,1,.186.509c0,.357.068.39.763.34.425-.017.8-.119.815-.2.034-.1.2-.17.39-.17.169,0,.322-.067.322-.169,0-.085.1-.119.238-.068.339.136.95-.526.95-1a6.852,6.852,0,0,0-1.815-3.206c-.425-.407-.933-.9-1.137-1.119a4.552,4.552,0,0,0-1-.764,2.841,2.841,0,0,1-.882-.746c-.254-.373-.237-.407.2-.679a3.26,3.26,0,0,0,.916-.9c.407-.576.424-.661.2-1.085-.288-.543-.237-1.391.085-1.34.1.033.2-.1.2-.306,0-.186.067-.3.152-.254.085.068.238-.1.323-.356.1-.272.186-.374.186-.238.017.187.085.17.272-.085.2-.254.237-.271.254-.051,0,.374,1.187.713,1.73.509a3.256,3.256,0,0,0,1.493-1.713,9,9,0,0,1,.662-2.443,6.031,6.031,0,0,0,.152-1.713,7.868,7.868,0,0,1,.17-1.951c.119-.339.068-.627-.255-1.357a3.448,3.448,0,0,0-.61-1.051c-.1-.068-.136-.17-.068-.238s-.051-.237-.238-.373c-.627-.424-1.289-2.239-.831-2.239a4.258,4.258,0,0,1,1.764,1.442,3.339,3.339,0,0,0,.662.933,6.553,6.553,0,0,1,.933,1.374,4.6,4.6,0,0,0,.865,1.221,2.844,2.844,0,0,1,.695,1.035c.1.339.255.61.34.61s.22.255.322.56a3.3,3.3,0,0,0,.712,1.069l.526.492-.118-.611c-.119-.611-.1-.611.356-.526a1.631,1.631,0,0,1,.78.441c.238.289.288.306.305.085,0-.322-.559-1-.814-1a1.358,1.358,0,0,1-.594-.39,9.439,9.439,0,0,0-.848-.661,2.445,2.445,0,0,1-.678-1.018c-.136-.407-.306-.865-.373-1.035-.187-.441.627-.373,1.441.136.713.458.849.492.849.288,0-.068-.255-.271-.543-.458a8.034,8.034,0,0,1-1.255-1c-.374-.39-1.357-1.306-2.172-2.052a13.1,13.1,0,0,1-1.73-1.815c-.305-.577-.984-1.323-1.2-1.323a1.319,1.319,0,0,1-.577-.475c-.611-.7-.933-.9-1.238-.781-.238.085-.187.17.254.441.526.323.526.323.221.662-.289.322-.289.373-.051.543.356.271.9,1.119.8,1.238-.136.136-.984-.831-.984-1.12a3.173,3.173,0,0,0-1.052-.7c-.593-.271-1.289-.628-1.543-.763-.56-.306-2.053-.441-1.832-.17.169.221-.068.95-.322.95-.085,0-.17-.153-.17-.339s-.119-.34-.255-.34-.254-.152-.254-.339-.085-.339-.187-.339-.152-.1-.1-.238c.135-.356-.475-.848-.849-.7a1,1,0,0,1-.508.1.344.344,0,0,0-.306.152c-.1.153.373.238,1.188.2.186,0,.237.034.118.085-.169.068-.152.152.068.407.153.169.2.322.1.322-.085,0-.136.17-.085.373q.077.383-.254-.2c-.289-.526-.424-.611-1.205-.7-1.458-.186-1.475-.22-.831-1.034.73-.933,1-1.459.781-1.527-.187-.068.525-1.662.746-1.662.068,0,.051-.187-.034-.425-.136-.339-.1-.458.085-.525a.6.6,0,0,0,.254-.509.544.544,0,0,1,.356-.543,7.771,7.771,0,0,1,3.122-.051.54.54,0,0,0,.441.187c.186,0,.305-.051.254-.136a3.3,3.3,0,0,1,1.289-.085c1.289.051,1.357.034,1.273-.3-.068-.255-.017-.323.186-.255a6.125,6.125,0,0,0,1.629.289,1.562,1.562,0,0,1,.576.068c.323.084.357.152.2.339-.221.271-.034.424.543.424,1.34,0,1.662-.034,1.662-.187,0-.1.187-.135.475-.068a2.084,2.084,0,0,0,.967-.084c.594-.221.407-.408-.7-.7-.746-.186-.848-.424-.542-1.2a4.431,4.431,0,0,0,.186-1c.034-.526.085-.56.713-.628.373-.034.831-.051,1.017-.051.187.017.543.017.815.034.288,0,.458.085.458.238,0,.339.644.967.865.848.085-.068.305.068.492.288.22.255.322.306.339.153,0-.136.051-.187.119-.119.068.051.2-.135.288-.441.153-.424.288-.577.662-.61.407-.051.678-.374.288-.374a1.773,1.773,0,0,1-.611-.458c-.441-.441-.441-.458-.084-.576.407-.153.916-.017.763.2-.1.187.8,1.34,1.052,1.34.322,0,.186.56-.221.933a.752.752,0,0,0-.305.747.965.965,0,0,1-.1.644.909.909,0,0,0-.085.73c.119.627-.136,1.357-.492,1.357-.136,0-.254.067-.254.169,0,.085-.17.17-.373.17-.391,0-.391,0,.05.407a.877.877,0,0,1,.374.831c-.136.713.746,1.866,2.714,3.562.458.391,1.153,1,1.526,1.374.391.357,1.052.933,1.476,1.273a12.788,12.788,0,0,1,1.154,1.068,6.536,6.536,0,0,0,.882.815l.492.356.271-.526a1.476,1.476,0,0,0-.187-1.713c-.305-.255-.305-.764,0-.882a1.366,1.366,0,0,1,.645,0c.322.067.254-.051-.356-.577-.594-.543-.713-.747-.611-1.052.1-.322.187-.356.713-.254.508.1.593.068.525-.2a1.856,1.856,0,0,0-.712-.746c-1.035-.713-1.442-1.747-.526-1.323a.781.781,0,0,0,.543.084c.153-.169-.628-.966-.95-.966-.373-.017-1.2-.764-1.2-1.086,0-.356-.628-.662-1.12-.543a1.059,1.059,0,0,1-1.153-1.221.9.9,0,0,0-.34-.95c-.424-.407-.424-.526-.051-.458a1.259,1.259,0,0,0,.492-.17c.187-.1.306-.119.238-.017-.051.085.017.2.153.272a.275.275,0,0,0,.356-.39c-.221-.357.407-.289.746.067.424.441.679.424.679-.067,0-.645,1.577-.7,2.866-.1.984.458,1.171.458.9-.017-.118-.221-.067-.39.238-.7a2.153,2.153,0,0,0,.509-.814.879.879,0,0,1,.594-.577c.271-.084.491-.254.491-.339a.215.215,0,0,1,.238-.187.734.734,0,0,0,.458-.271c.22-.271.882-.254,2.239.034.39.085.458.051.458-.237a.52.52,0,0,0-.373-.475,1.769,1.769,0,0,1-.645-.323,2.551,2.551,0,0,0-.678-.356,10.9,10.9,0,0,1-2.545-1.476,1.607,1.607,0,0,1,.323-.492c.441-.458.186-.882-.7-1.136-.356-.119-.611-.272-.56-.356.051-.1.543.05,1.069.322a3.681,3.681,0,0,0,2.154.475,3.462,3.462,0,0,1,2.036.441,3.717,3.717,0,0,0,1.221.458,8.08,8.08,0,0,1,1.391.322c.967.306,1.052.306,1.222.034.152-.237.169-.237.084.017-.1.339.323.407.747.136.22-.136.186-.187-.119-.272-.221-.067-.339-.169-.288-.254a.094.094,0,0,0-.085-.153A1.11,1.11,0,0,1,376,26.3c-.339-.339-.339-.339.1-.39.254-.034.492-.153.526-.289.05-.169,0-.2-.187-.135-.17.068-.238.034-.187-.1.034-.119-.135-.339-.407-.492a15.289,15.289,0,0,0-4.919-1.153,4.073,4.073,0,0,1-1.985-.408,98.712,98.712,0,0,0-11.026-2.765c-.831-.135-2.171-.271-2.968-.3a37.351,37.351,0,0,1-4.5-.373c-.272-.068-.255-.017.135.356a1.9,1.9,0,0,0,.628.441,3.458,3.458,0,0,1,.8.373l.645.391-.475.05a1.058,1.058,0,0,1-.7-.118,2.621,2.621,0,0,0-1.017-.289,2.257,2.257,0,0,1-.866-.237c-.05-.085.068-.1.255-.051s.339,0,.339-.1-.051-.169-.119-.169a6.075,6.075,0,0,1-.729-.017l-.594-.051.594-.119.594-.119-.543-.051c-1.052-.1-1.154-.085-1.154.17,0,.187-.186.254-.763.237-1.374-.05-4.5-.067-4.75-.034-.593.085-2.035-.237-2.035-.474,0-.323-.8-.7-2.154-1.018a12.8,12.8,0,0,0-3.8-.17c-2.121.085-2.748.068-3.24-.136a7.146,7.146,0,0,0-1.408-.356c-1.17-.136-1.628-.271-1.51-.441.272-.441-3.1-.882-3.613-.475-.152.136-.237.153-.169.034.186-.288-.187-.356-3.359-.644-3.444-.306-3.325-.306-2.8,0l.424.237-.628.017c-.492,0-.61.051-.542.254a.641.641,0,0,0,.542.255c.238,0,.374.051.306.119-.051.067.1.22.356.339l.475.22-.509-.1a4.222,4.222,0,0,0-.848-.1c-.187.017-.814.034-1.408.034a6.415,6.415,0,0,0-1.442.152,2.4,2.4,0,0,1-1.153-.017c-.407-.084-.916-.169-1.12-.186-.187-.017-.322-.085-.271-.17.034-.068-.017-.119-.136-.119-.1,0-.153.136-.1.289.356,1.136.373,1.069-.237.967a6.862,6.862,0,0,1-2.833-1.408,2,2,0,0,0-.814-.526.229.229,0,0,1-.238-.221c0-.475-3.07-1.34-3.325-.933a.224.224,0,0,1-.288.017,1.771,1.771,0,0,0-.628-.169c-.237-.034-.763-.136-1.187-.238-.543-.118-.78-.118-.814,0a.139.139,0,0,1-.221.085.093.093,0,0,0-.152.085c0,.1.152.271.339.39s.339.255.339.3a14.236,14.236,0,0,1-3.053-.067c-.509-.034-1.086-.068-1.272-.085-.255-.017-.289-.051-.1-.17.135-.085.152-.186.051-.254a25.59,25.59,0,0,0-4.563-.051c-.255.152-1.408-.526-1.408-.831,0-.17-.221-.238-.781-.238-.627,0-.8.068-.865.322-.051.221-.186.289-.407.238a1.168,1.168,0,0,0-.594.017c-.22.085-.237.153-.067.339.152.2.084.289-.458.424-.815.238-1.629.238-1.493.017.051-.1.288-.169.509-.169a.706.706,0,0,0,.543-.221,4.5,4.5,0,0,1,1.611-1.018,2.3,2.3,0,0,0,.9-.61c.153-.391-.594-1.052-1.1-.984-.238.034-.323.034-.2,0,.17-.068.153-.136-.085-.323-.356-.271-.627-.3-.475-.067.17.271-.119.2-.458-.119-.254-.221-.695-.289-2.392-.289a12.574,12.574,0,0,0-2.476.136c-.306.1-.373.085-.323-.085.119-.339-.169-.831-.474-.831-.136,0-.2.068-.153.17.169.254-.56.2-1-.085A6.837,6.837,0,0,0,278.678,11.34Zm13.163,4.088c.187.118.119.169-.288.169-.305,0-.56-.085-.56-.169C290.993,15.207,291.5,15.207,291.841,15.428Zm-26.7,6.463c.407.458.2.559-.272.152a1.406,1.406,0,0,0-.61-.339.431.431,0,0,1-.306-.136C263.785,21.28,264.853,21.585,265.142,21.891Zm105.832,2.357c.051.1-.017.119-.153.068-.305-.118-.356-.237-.119-.237A.324.324,0,0,1,370.974,24.248Zm-3.223,2.884c.136.221-.255.221-.594,0-.2-.136-.186-.169.119-.169C367.479,26.963,367.7,27.03,367.751,27.132Zm-59,12.332c.678,1.578.763,1.9.559,2.2-.169.272-.186.272-.1,0,.05-.152.017-.288-.068-.288-.1,0-.17.153-.17.339a.3.3,0,0,0,.305.34c.17,0,.221.05.1.135a1.082,1.082,0,0,0-.3.458c-.051.221-.39.458-.831.611-.611.237-.713.322-.662.712.051.374-.034.458-.628.645a1.352,1.352,0,0,1-1.068.017c-.373-.17-.373-.187.1-.187.475-.017,1.119-.424,1.119-.729a1.353,1.353,0,0,1,.356-.492.722.722,0,0,0,.255-.594.3.3,0,0,1,.119-.356c.559-.356.712-1.7.356-2.985C308.041,38.82,308.533,38.955,308.754,39.464Zm-32.62,12.248c.051.084-.017.186-.153.254a.408.408,0,0,0-.254.356.261.261,0,0,1-.255.255c-.169,0-.254.169-.254.525,0,.458-.034.509-.255.323-.305-.255-.339-1.018-.051-1.018.1,0,.153-.051.1-.1-.153-.152.424-.712.747-.729A.423.423,0,0,1,276.134,51.712Zm1-.034a.9.9,0,0,1-.425,0c-.118-.051-.033-.085.2-.085S277.236,51.627,277.135,51.678Zm2.323.22c.187.136.119.153-.254.068-.628-.136-.763-.238-.322-.238A1.336,1.336,0,0,1,279.458,51.9Zm1.018-.017c0,.1-.152.153-.339.136s-.339-.085-.339-.153.152-.136.339-.136S280.476,51.8,280.476,51.881Zm-20.406.289a.348.348,0,0,1-.323.016c-.135-.05-.084-.1.1-.1C260.036,52.068,260.138,52.119,260.07,52.17Zm-1.306.746a.186.186,0,0,1-.187.17c-.085,0-.119.084-.068.169a.415.415,0,0,0,.441.085c.238-.085.339,0,.424.322a1.313,1.313,0,0,0,.34.628c.186.153.186.271-.034.7-.17.34-.34.475-.509.407a1.968,1.968,0,0,0-.509-.1c-.17,0-.238-.238-.238-.916a1.947,1.947,0,0,0-.169-1.035c-.1-.068-.085-.187.051-.339C258.543,52.712,258.764,52.678,258.764,52.916Zm-.594.848c.17.56-.1.746-.356.254-.289-.576-.289-.593,0-.593C257.949,53.425,258.1,53.577,258.17,53.764Zm-.509,1.323c-.1.1-.424-.763-.407-1.119,0-.153.119.017.254.373A1.462,1.462,0,0,1,257.661,55.087Zm-4.648,3.8a3.178,3.178,0,0,0,.73.865c.288.271.424.441.305.373a.429.429,0,0,0-.475.187c-.187.237-.288.254-.339.1a.548.548,0,0,0-.441-.2c-.441,0-.8-.458-.815-1.052C251.978,58.463,252.691,58.276,253.013,58.887ZM231.962,78.276c0,.135-.068.254-.17.254-.084,0-.118-.119-.067-.254.067-.136.135-.255.169-.255S231.962,78.14,231.962,78.276ZM297.27,91.083c0,.084-.034.169-.068.169-.051,0-.136-.085-.187-.169-.051-.1-.017-.17.068-.17A.175.175,0,0,1,297.27,91.083ZM242.208,95.8c.051.085-.017.153-.153.153s-.2-.068-.153-.153c.051-.067.119-.135.153-.135S242.157,95.731,242.208,95.8Zm79.573,8.16a.206.206,0,0,1-.085.271c-.084.051-.169-.017-.169-.153C321.527,103.771,321.628,103.72,321.781,103.958Zm3.562,1.543c.17.187.221.339.119.339s-.271-.152-.373-.339-.153-.339-.119-.339A1.616,1.616,0,0,1,325.343,105.5Z"/>
    <path id="path2339" class="cls-1" d="M315.929,15.071c0,.289.492.56.814.458.221-.067.373-.017.441.153s-.017.255-.254.255c-.2,0-.289.067-.221.186.051.1.272.136.492.085a7.95,7.95,0,0,1,1.781.085c1.391.169,1.832.1,1.357-.187a7.7,7.7,0,0,0-2.578-.678,1.691,1.691,0,0,1-.882-.255C316.506,14.9,315.929,14.834,315.929,15.071Z"/>
    <path id="path2341" class="cls-1" d="M353.587,53.527c0,.135-.068.2-.17.152-.085-.051-.17-.017-.17.085,0,.119.1.17.238.119.424-.17,1.544,1.476,1.357,2a.285.285,0,0,0,.085.34c.373.22.169.39-.305.254-.628-.17-.781-.034-.425.356.238.272.255.323.034.407-.152.068-.254.323-.254.645,0,.3.034.441.068.339.119-.322.848.221.967.73.118.458.559.543.712.152a.431.431,0,0,1,.339-.254c.458,0,.238-.322-.441-.611-.373-.169-.678-.356-.678-.441,0-.186.237-.169.458.051.136.136.271.119.526-.034.271-.169.492-.152,1.272.17a2.066,2.066,0,0,0,1.153.254c.136-.068.153-.051.085.068s-.034.2.068.2c.136,0,.17-.153.1-.407-.153-.645.051-.95.644-.95.56-.017,1.12-.34,1.12-.645,0-.1-.119-.153-.271-.085-.2.085-.255-.034-.221-.678.034-.543.1-.747.271-.679.119.051.221.017.221-.085,0-.084-.153-.2-.339-.254-.289-.068-.357.017-.441.577-.119.7-.407.746-.407.051,0-.492-.272-.543-.425-.068-.1.322-.135.322-1.323-.119a6.523,6.523,0,0,1-2.154-1.069,5.422,5.422,0,0,0-1.51-.848C353.672,53.255,353.587,53.374,353.587,53.527Z"/>
    <path id="path2343" class="cls-1" d="M356.131,59.277c0,.153-.085.221-.186.153-.136-.085-.17.017-.085.322.051.254.017.492-.085.543-.119.085-.085.22.1.424a.628.628,0,0,1,.152.577c-.067.186-.017.271.17.271a.637.637,0,0,1,.441.339,3.7,3.7,0,0,1,.068,2.375c-.221.255-.238.322-.238.763,0,.153-.2.357-.458.475a1.484,1.484,0,0,0-.593.374c-.187.237-.492-.272-.373-.628.118-.373-.119-.492-.475-.238-.238.17-.238.255-.034.611.118.238.22.322.237.187,0-.136.034-.2.085-.153.1.1-.305.984-.458.984-.2,0-.17.645.034.712.1.034.1.153,0,.289-.119.2-.187.2-.407.034-.2-.17-.441-.187-1.1-.017a6.019,6.019,0,0,1-1.238.169c-.713-.068-.984,0-.984.2a3.028,3.028,0,0,1-1.221,1.374.483.483,0,0,0-.306.441.864.864,0,0,1-.2.526c-.119.1-.39.322-.611.492l-.39.339.458.509c.254.288.526.475.628.407.1-.051.118-.034.067.068-.067.085.1.475.357.831a2.6,2.6,0,0,1,.458.916c0,.136.169.271.39.3.2.034.373.153.373.255,0,.119.17.017.39-.221.322-.356.373-.593.339-1.526a10.7,10.7,0,0,0-.067-1.273c-.068-.424.05-.407.542.068.56.56,1.1.713.933.255-.135-.34.187-.916.492-.916.136,0,.255.068.255.169,0,.323.254.17.458-.271a1.149,1.149,0,0,0,.119-.662.285.285,0,0,1,.084-.339c.1-.051.187,0,.187.136,0,.3.678.916,1.086,1,.254.034.356-.085.475-.509.084-.306.254-.543.39-.543.373,0,.3-.475-.085-.594-.187-.051-.339-.169-.339-.254,0-.068.152-.1.339-.051s.339.136.339.2a1.578,1.578,0,0,0,.763.1c.7,0,.764-.034.764-.424l.017-.424.254.475c.289.543.645.441.526-.153-.085-.475.238-.542.628-.135.254.237.288.237.542,0,.136-.153.2-.357.153-.441a.375.375,0,0,1,.068-.408c.136-.169.1-.322-.153-.61a1.441,1.441,0,0,1-.356-.747c-.017-.2-.051-.475-.068-.61s-.051-.373-.068-.526a1.416,1.416,0,0,0-.356-.662,1.359,1.359,0,0,1-.339-.627c0-.17.1-.2.339-.136.187.068.339.034.339-.068a.173.173,0,0,0-.169-.186c-.085,0-.17-.374-.17-.832,0-.8-.051-.9-1.1-1.984a5.893,5.893,0,0,1-1.1-1.374.229.229,0,0,0-.237-.221,1.923,1.923,0,0,1-.509-.1C356.216,59.023,356.131,59.073,356.131,59.277Zm.848.492c0,.034-.118.1-.254.17-.136.05-.255.017-.255-.068,0-.1.119-.17.255-.17S356.979,59.735,356.979,59.769Zm-3.1,9.516c.136.373,0,.458-.526.322-.356-.084-.407-.152-.254-.339C353.349,68.946,353.739,68.963,353.875,69.285Zm-1.238.509a.383.383,0,0,1-.662.1c-.068-.136.153-.255.628-.339C352.671,69.557,352.688,69.658,352.637,69.794Zm-1.476.288c-.051.136-.1.085-.1-.1-.017-.187.034-.289.085-.221A.343.343,0,0,1,351.161,70.082Zm.492.085c-.119.458-.526.9-.814.9-.068,0-.119-.1-.085-.22.017-.119-.187-.221-.509-.255-.305-.034-.56-.135-.56-.237,0-.119.289-.136.831-.068.747.1.849.068.95-.237C351.636,69.54,351.772,69.641,351.653,70.167Z"/>
    <path id="path2345" class="cls-1" d="M230.5,67.759a1.861,1.861,0,0,1-.95.254c-.356,0-.644.068-.644.17,0,.084-.153.169-.357.169-.508,0-.339.543.255.814.424.221.526.2.967-.118a1.783,1.783,0,0,1,.644-.357c.1,0,.136-.1.085-.237-.051-.153.051-.339.255-.475.356-.22.475-.475.22-.475A1.306,1.306,0,0,0,230.5,67.759Z"/>
    <path id="path2347" class="cls-1" d="M342.272,92.813a11.755,11.755,0,0,0,.034,3.257c.1.322.085.339-.135.051-.543-.662-.611-.119-.17,1.255.288.882.729,1.51,1.069,1.51.1,0,.169-.136.169-.289s.051-.22.119-.169a.636.636,0,0,1-.119.525c-.237.442-.118,1.035.17.866.085-.051.17-.017.17.067,0,.289-.509.221-.611-.067a.455.455,0,0,0-.356-.255c-.17,0-.1.187.254.628a9.287,9.287,0,0,1,.78,1.187c.357.713.611.848.883.475a1.2,1.2,0,0,0-.272-1.459c-.305-.271-.305-.288.085-.492.424-.237.984-.067.577.17-.17.119-.17.2.017.424.22.272.254.272.441,0,.186-.254.22-.254.373.034.1.17.237.238.305.17.085-.068.034-.289-.085-.475-.39-.645-.084-.492.7.339.712.763.831,1.035.441,1.035a.1.1,0,0,1-.1-.136,1.453,1.453,0,0,0-.577-.882c-.237,0-.135.526.119.611.17.067.255.339.255.814,0,.458.05.61.152.458.119-.187.221-.187.543.051.594.407.7.339.39-.255-.152-.322-.2-.576-.1-.644a1.087,1.087,0,0,0,.238-.56c.068-.373,0-.492-.39-.662-.526-.2-.662-.492-.238-.492.136,0,.255.068.255.17,0,.2.169.221.492.017.169-.119.186-.221.034-.509-.238-.407-.526-.475-.526-.1,0,.238-.051.238-.509,0a1.017,1.017,0,0,0-.662-.169c-.085.034-.2-.034-.254-.187-.085-.22-.255-.254-.848-.17-.577.085-.764.068-.832-.152-.1-.238.085-.322.7-.306.1.017.2-.033.2-.084,0-.17-.594-.526-.883-.543-.339,0-.424-.238-.339-.882.051-.306.17-.475.373-.475.424,0,.611-1.425.238-1.985a2.483,2.483,0,0,1-.272-1.085c0-.662-.017-.662-.559-.56-.323.051-.594.017-.662-.085A.843.843,0,0,0,342.272,92.813Z"/>
    <path id="path2349" class="cls-1" d="M348.159,101.786a1.177,1.177,0,0,0,.492.679c.288.2.458.458.407.61-.068.187-.136.17-.306-.067-.322-.424-.458-.187-.339.525.068.357.221.611.356.611.153,0,.238.187.238.492a.625.625,0,0,0,.475.679c.271.118.492.288.492.407a2.1,2.1,0,0,0,.118.559c.085.306.051.357-.322.357-.237,0-.424-.051-.424-.136a.157.157,0,0,0-.17-.153c-.084,0-.118.221-.051.543.085.39.051.492-.1.407-.136-.085-.238,0-.306.221-.118.441-.186.441-.559-.017-.255-.339-.357-.356-.747-.17-.237.1-.441.306-.441.458s-.152.255-.424.255c-.237,0-.458.1-.492.2-.034.119-.119.458-.22.73a1.523,1.523,0,0,0-.085.729.278.278,0,0,0,.543-.1,1.238,1.238,0,0,1,.254-.61c.255-.323.255-.323.255.033,0,.391.237.509.424.2a.266.266,0,0,1,.339-.051c.17.051.254-.034.254-.271,0-.306.051-.34.323-.187.271.136.339.339.322,1.052-.017.763.034.916.458,1.255a2.26,2.26,0,0,0,.848.441.489.489,0,0,1,.39.441c.068.407.441.424.475.017a1.813,1.813,0,0,1,.136-.543.964.964,0,0,0-.085-.763c-.305-.611-.288-.763.068-.814a.235.235,0,0,1,.288.254,1.363,1.363,0,0,0,.255.628c.22.305.237.288.254-.3a1.207,1.207,0,0,1,.17-.73c.1-.051.169-.254.169-.458a8.514,8.514,0,0,0-.882-2.918c-.1.068-.1-.169-.034-.542.1-.56.085-.611-.186-.526-.2.085-.305.017-.373-.221-.1-.39-.39-.458-.39-.085a.265.265,0,0,1-.272.255c-.2,0-.237-.068-.1-.221a.6.6,0,0,0,.017-.542c-.22-.56-.169-.628.357-.56l.491.068-.322-.526a2.32,2.32,0,0,1-.339-.95c0-.645-.272-.9-1-.933C348.277,101.464,348.159,101.515,348.159,101.786Z"/>
    <path id="path2351" class="cls-1" d="M345.105,102.6a.365.365,0,0,0,.17.271c.119.068.153.509.119,1.035-.068.95,0,1.068.373.7.169-.153.254-.153.305,0,.034.119.187.153.322.1.357-.136.289.339-.1.678-.289.238-.306.34-.136.628.119.187.305.339.407.339.119,0,.238.119.305.255.153.424.408.288.611-.339.1-.323.271-.594.356-.594.1,0,.119.068.068.169-.119.187.407.221.831.068.407-.152.323-.661-.152-.916-.34-.186-.424-.356-.424-.882s-.051-.644-.34-.644c-.186,0-.339.067-.339.169,0,.085-.136.17-.322.17-.238,0-.289-.1-.221-.424.068-.356,0-.424-.322-.424a2.325,2.325,0,0,1-.831-.255C345.275,102.414,345.105,102.4,345.105,102.6Zm2.663,1.577c-.05.136-.1.085-.1-.1-.017-.186.034-.288.084-.22A.342.342,0,0,1,347.768,104.178Zm-.118,1.238c0,.085-.085.051-.17-.084a1.157,1.157,0,0,1-.17-.425c0-.1.085-.05.17.085A1.057,1.057,0,0,1,347.65,105.416Zm.288-.051c-.051.136-.1.085-.1-.1-.017-.187.034-.289.085-.221A.343.343,0,0,1,347.938,105.365Zm-.678.34c-.051.135-.1.085-.1-.1-.017-.187.034-.288.085-.221A.35.35,0,0,1,347.26,105.705Z"/>
    <path id="path2353" class="cls-1" d="M341.95,103.805a3.223,3.223,0,0,1-.441,1.052c-.186.271-.271.559-.22.644.067.1.05.153-.034.136-.2-.068-1.527,1.289-1.663,1.713a.641.641,0,0,0,.068.577c.136.136.187.136.187,0a4.984,4.984,0,0,1,.848-1.035,4.088,4.088,0,0,0,.848-1.035c0-.271.729-.983,1.086-1.051.458-.085.526-.424.1-.543-.237-.051-.339-.221-.339-.543,0-.254.068-.407.17-.339.1.051.169.034.169-.068,0-.085-.152-.153-.339-.136C342.154,103.194,342.018,103.364,341.95,103.805Z"/>
    <path id="path2355" class="cls-1" d="M291.231,105.705a.177.177,0,0,0,.068.271.4.4,0,0,1,.2.39c0,.2-.085.272-.254.221-.136-.068-.255-.017-.255.085a.186.186,0,0,0,.17.186c.22,0,.22.73.017.933a10.5,10.5,0,0,0,.407,3.1c.153.391.814.526,1.357.255.882-.441,1.1-.73,1.1-1.459a5.39,5.39,0,0,0-1.12-2.68.612.612,0,0,1-.237-.39,2.422,2.422,0,0,0-1.137-1.12A.4.4,0,0,0,291.231,105.705Z"/>
    <path id="path2357" class="cls-1" d="M339.389,109.2a2.671,2.671,0,0,0-.407.746c-.119.357-.289.645-.374.645-.067,0-.22.221-.305.492a1.952,1.952,0,0,1-.594.78c-.339.221-.39.323-.22.526.153.2.119.238-.255.238a1.163,1.163,0,0,0-.712.254,1.032,1.032,0,0,1-.594.255c-.22,0-.322.118-.322.356a2.89,2.89,0,0,1-.679,1.17c-.559.679-.8.831-1.441.916a1.717,1.717,0,0,0-.849.289.217.217,0,0,1-.271.067c-.136-.084-.237.543-.17.984a1.034,1.034,0,0,1-.152.475c-.153.272-.238.306-.56.119a1.16,1.16,0,0,0-.679-.153.4.4,0,0,1-.39-.22c-.152-.373-.627-.068-.95.594-.288.559-.271,1.187,0,2.646.238,1.2.458,1.56.882,1.459.289-.085.34-.017.323.475,0,.322.051.932.1,1.374.135.848.118.831,1.407.814.594,0,.713.051.713.322,0,.39.271.611.424.356a.367.367,0,0,1,.407-.085.826.826,0,0,0,.662-.254c.2-.2.373-.271.373-.17,0,.085.119.17.254.17s.255.085.255.187c0,.118.152.152.356.1.56-.152.831.051.831.577,0,.594.1.611,1.035.068l.746-.407.2.373c.186.373.2.373.39-.119a1.523,1.523,0,0,0,.085-.8,1.717,1.717,0,0,1,.186-.95c.2-.407.238-.644.119-.678-.322-.119-.034-.8.577-1.374a2.529,2.529,0,0,1,.746-.543c.085,0,.119-.373.051-.9-.119-1.137.153-1.561,1-1.51.916.068.967-.271.136-1-.577-.492-.713-.7-.611-.984a1.045,1.045,0,0,0-.238-.848c-.3-.424-.339-.56-.152-.95.136-.322.136-.492,0-.627-.238-.238.085-.577.712-.747.611-.152.713-.373.187-.509-.509-.118-.56-.407-.068-.407.424,0,1-.288,1-.526,0-.084-.17-.237-.373-.322a4.267,4.267,0,0,1-1.171-.729.358.358,0,0,0-.339-.085c-.153.034-.221-.068-.187-.288a1.013,1.013,0,0,0-.39-.73c-.22-.2-.373-.475-.322-.611C339.881,109.216,339.66,109.029,339.389,109.2Z"/>
    <path id="path2359" class="cls-1" d="M311.434,111.778c-.34.542.186,1.289,2.171,3.155a2.945,2.945,0,0,1,.967,1.306c0,.119.339.458.763.763.424.288.747.594.73.662a4.336,4.336,0,0,0,.848,2.171c.475.153,1.73,2.409,1.832,3.257a4.318,4.318,0,0,0,1.306,1.917,1.778,1.778,0,0,1,.458.61,14.362,14.362,0,0,0,1.51,1.612c1.492,1.476,1.526,1.493,2.052,1.306.424-.136.594-.136.78.068.2.2.221.339.051.7-.22.475-.492.611-.492.255,0-.255-.22-.017-.271.288-.034.187.136.255.611.255.576,0,1.187.373,1.051.661-.017.051.238.153.594.238a5.517,5.517,0,0,1,.984.271c.594.271.9.339,1,.221a3.536,3.536,0,0,1,2.154.305,10,10,0,0,0,3.63.577c.136-.068.255-.017.255.1a.144.144,0,0,0,.22.119,1.556,1.556,0,0,1,.746.17c.747.305.933.288.815-.1-.085-.271-.034-.3.254-.238a.459.459,0,0,1,.339.458c.017.357.017.357.255.034.136-.186.254-.254.254-.135,0,.1.289.237.645.288a6.25,6.25,0,0,1,.984.255,2.157,2.157,0,0,0,1.187-.085c.458-.119.73-.238.594-.238-.136-.017-.187-.068-.136-.119.068-.067.2-.05.322.051a.96.96,0,0,0,1.171-.051c.153-.186.254-.186.424-.05.39.322,2.765.339,3.8.034a4.919,4.919,0,0,1,1.153-.238.62.62,0,0,0,.441-.136.426.426,0,0,1,.424-.034,2.294,2.294,0,0,0,1.493-.22c.271-.272-.17-.322-1.73-.221a1.914,1.914,0,0,1-.984-.118c-.085-.119-.255-.017-.475.288-.187.254-.424.407-.526.356a7.541,7.541,0,0,0-2.222-.3c-.56,0-.865.068-.967.237-.119.187-.17.2-.17.034,0-.152-.118-.186-.322-.118a.417.417,0,0,1-.441-.085c-.051-.085-.017-.17.085-.17s.136-.085.068-.186c-.085-.136-.136-.136-.221,0-.135.2-.763.169-.967-.034-.22-.221-.933-.119-1.034.152a.255.255,0,0,1-.323.17.211.211,0,0,0-.288.119q-.051.2-.356-.1c-.373-.373-.645-.305-.865.186-.085.2-.255.374-.374.374-.271,0-.288-.272-.033-.424.254-.17-.475-.645-.781-.526-.356.135-.763-.051-.763-.34,0-.254-.034-.271-1.188-.3-.559-.017-.763-.085-.814-.305-.034-.221.034-.272.289-.221.475.085,1.408-.237,1.323-.475-.034-.1-.526-.152-1.256-.135a3.692,3.692,0,0,1-1.713-.221c-.271-.136-.543-.2-.61-.153-.051.068-.2-.034-.34-.2-.22-.3-.237-.289-.509.136a.671.671,0,0,1-.746.373c-.254-.017-.763-.051-1.137-.068-.525-.017-.729-.1-.848-.39a.83.83,0,0,0-.559-.424,3.809,3.809,0,0,1-.933-.323c-.323-.186-.543-.22-.594-.1-.034.118-.238.118-.577.017a1.431,1.431,0,0,0-.678-.051c-.085.068-.119-.136-.051-.475.051-.306.118-1.137.169-1.832.085-1.731.2-2.07.611-1.849.373.186,1-.068,1-.407,0-.136-.051-.136-.153.034-.1.152-.186.169-.254.033a.352.352,0,0,1-.034-.339c.051-.085-.051-.186-.238-.237-.339-.085-.407-.187-.576-1.018-.136-.56-.458-.577-1.018-.068-.458.424-.424.628.1.628.169,0,.305.085.305.186,0,.119-.153.153-.373.085a4.268,4.268,0,0,0-.509-.1c-.085,0-.136-.084-.136-.186a.825.825,0,0,0-.254-.424,1.323,1.323,0,0,1-.255-.764c0-.407-.068-.492-.39-.492a1.32,1.32,0,0,1-.712-.237c-.289-.2-.306-.271-.085-.526.339-.407.39-1.018.1-1.255a.486.486,0,0,1-.153-.475c.085-.2.034-.255-.17-.17-.186.068-.288.017-.288-.135,0-.136-.187-.289-.424-.357-.238-.051-.424-.2-.424-.339,0-.22-.085-.271-.679-.3a.343.343,0,0,1-.254-.357.387.387,0,0,0-.339-.39,1.357,1.357,0,0,1-.526-.22.726.726,0,0,0-.526-.051.334.334,0,0,1-.475-.255c-.051-.2-.187-.356-.272-.356a.173.173,0,0,1-.152-.186c0-.221-.255-.475-1.018-1a7.941,7.941,0,0,1-.814-.628.773.773,0,0,0-.39-.22c-.085,0-.153-.119-.153-.255a.948.948,0,0,0-.17-.475c-.1-.118-.322-.39-.509-.61-.271-.323-.491-.391-1.17-.391a1.782,1.782,0,0,1-1.221-.322C311.943,111.574,311.586,111.523,311.434,111.778Zm29.261,20.8c0,.034-.119.068-.255.068s-.254-.068-.254-.17c0-.084.119-.118.254-.067C340.576,132.472,340.7,132.54,340.7,132.574Z"/>
    <path id="path2361" class="cls-1" d="M282.173,114.305a.845.845,0,0,0,.169.611.271.271,0,0,1,.068.322.3.3,0,0,0,.085.356.4.4,0,0,1,.186.306c0,.118-.067.1-.186-.051-.153-.2-.17-.2-.085.051a2.682,2.682,0,0,1,.1.644c0,.39.39.424.678.051.187-.221.17-.271-.135-.356-.2-.051-.323-.17-.272-.255.17-.271-.1-1.34-.305-1.221-.119.085-.153-.068-.1-.424.034-.288.017-.526-.068-.526C282.24,113.813,282.173,114.034,282.173,114.305Zm.848,2.222a.17.17,0,0,1-.17.17.183.183,0,0,1-.17-.17.169.169,0,0,1,.17-.169A.16.16,0,0,1,283.021,116.527Z"/>
    <path id="path2363" class="cls-1" d="M353.587,117.138a2.923,2.923,0,0,0-.255,1.1c0,.357-.068.662-.169.662-.085,0-.051.085.084.187.17.118.187.2.068.254s-.152.254-.1.441c.084.356.1.356.22.034.1-.271.136-.238.136.17.017.407-.034.458-.323.39-.407-.1-.576.1-.424.543.119.424,1.1.593,1.1.2.017-.22.034-.22.187.034.339.577.441.119.135-.526-.441-.882-.305-1.255.374-1.018s.763.1.254-.39c-.407-.39-.407-.407-.085-.627.305-.221.458-1.052.187-1.052a1.486,1.486,0,0,0-.509.271c-.373.255-.373.238-.373-.424C354.1,116.6,353.909,116.51,353.587,117.138Z"/>
    <path id="path2365" class="cls-1" d="M349.448,118.054c-.39.407-.764.661-.933.61a14.666,14.666,0,0,0-1.578-.2,3.512,3.512,0,0,1-1.323-.238c0-.169-.611-.322-.8-.186a.992.992,0,0,0-.272.407c-.067.17-.2.254-.288.2-.237-.153-.848.542-.848.966,0,.17-.068.306-.136.306-.085,0-.118.22-.068.492a1.5,1.5,0,0,1-.2.9,1.809,1.809,0,0,0-.272.916c0,.576-.441,1.594-.695,1.594-.085,0-.136.2-.085.458.034.272.085.594.085.747.017.186.136.254.407.2.339-.068.39,0,.424.56a5.19,5.19,0,0,1-.153,1.476c-.237.984-.1,1.17.713,1.034.543-.1.594-.152.611-.712.034-2.663.135-3.427.441-3.528.458-.153.559.051.322.644-.187.492-.153.577.288.967.357.339.441.526.357.78a.541.541,0,0,0,.407.764,1.024,1.024,0,0,0,.492-.339.916.916,0,0,1,.475-.34c.135,0,.118.1-.051.289-.424.492-.475,1.017-.119,1.34.305.271.339.271.661-.017a.658.658,0,0,0,.255-.611c-.051-.153-.034-.339.034-.373a1.426,1.426,0,0,0,.136-.746c-.017-.526-.068-.628-.323-.594-.373.068-.763-.424-.661-.831a2.485,2.485,0,0,0-.441-1.188c-.424-.678-.492-.916-.34-1.1a.643.643,0,0,1,.424-.238c.119,0,.408-.237.611-.526.288-.39.475-.492.763-.407.306.068.391.017.391-.254,0-.458-.424-.611-.95-.339a2.587,2.587,0,0,1-1.018.237,1.165,1.165,0,0,0-.933.424c-.305.373-.831.39-.831.017a1.264,1.264,0,0,0-.356-.526.809.809,0,0,1-.255-.882c.17-.865.322-.916,2.477-.763,2.883.186,3.392.169,3.392-.221a2.17,2.17,0,0,1,.424-.729c.255-.339.39-.679.323-.848C350.279,117.257,350.194,117.29,349.448,118.054Z"/>
    <path id="path2367" class="cls-1" d="M354.689,124.127a1.081,1.081,0,0,0-.627.254c-.1.153-.136.153-.136,0s-.119-.119-.339.068c-.407.339-.441.644-.085.492.187-.068.254.017.254.3,0,.39.034.407.594.221.322-.1.594-.289.594-.407,0-.187.068-.187.339-.051a1.037,1.037,0,0,0,.662.084,1.411,1.411,0,0,1,.9.255c.712.441.814.424.814-.051C357.658,124.432,356.386,123.94,354.689,124.127Z"/>
    <path id="path2369" class="cls-1" d="M352.043,132.2a6.35,6.35,0,0,1-1.086.187c-.712.067-1.1.2-1.272.424a3.382,3.382,0,0,1-1.051.678,1.7,1.7,0,0,0-.916.73,2.1,2.1,0,0,1-.357.661c-.186.2-.186.305-.051.39.357.221,1.476-.288,2.087-.916a3.713,3.713,0,0,1,1.34-.865c.95-.305,2.036-.984,1.917-1.187A.494.494,0,0,0,352.043,132.2Z"/>
  </g>
</svg>
