<svg xmlns="http://www.w3.org/2000/svg" width="294" height="42" viewBox="0 0 294 42"><defs><style>.cls-1{fill:#07f;}.cls-2{fill:none;}.cls-3{fill:#fff;}.cls-4{fill:#0e2866;}</style></defs><title>mf_logo</title><g id="full_color"><g id="flame"><path class="cls-1" d="M21.91,9.26a51.47,51.47,0,0,1,9.33,1c2.91.54,5.85,1.55,8.83,1.54,2.28,0,4.12-1.59,4.11-3.53S42.32,4.7,40,4.71a13.35,13.35,0,0,0-3.9.65c.33-.24.66-.48,1-.69A26.14,26.14,0,0,1,52.19,1C57.81,1.26,63.66,3,68,6.72a19.89,19.89,0,0,1,6.62,17.82A19.75,19.75,0,0,1,62.45,39.62,24,24,0,0,1,48,40.14c-6.21-1.57-11.64-5-17.48-7.53a46.86,46.86,0,0,0-10.57-2.68H20a9,9,0,0,0,4.11-.7c1.73-.83,1.72-2.83.82-4.29-1.07-1.74-3.23-2.45-5.09-3a24.36,24.36,0,0,0-10-.49A15.06,15.06,0,0,0,3,23.94,5.67,5.67,0,0,0,1.2,26.16c3.08-8.54,9.2-7.58,13-9.92a2.16,2.16,0,0,0-1.57-3.93,7.24,7.24,0,0,0-2.92,1.46l-.86.65S11.9,9.26,21.91,9.26Z"/><path class="cls-2" d="M24.93,24.82l0,0,0,0Z"/><path class="cls-3" d="M24.84,24.73l.06.06Z"/><path class="cls-3" d="M57.3,14c-4.08,0-5.76,2.57-10.18,5-7.65,4.18-12.2,2.4-12.2,2.62s3.1,1.53,10.7,5.22A27,27,0,0,0,57.35,30h0a8,8,0,1,0,0-16Z"/></g><g id="MediaFire"><path class="cls-4" d="M87.63,6.31H101l.39,16.78h.09L110,6.31h13.68l-6.64,31.2h-8.92L113,16h-.09l-10.23,21.5H95.54L94.4,16h-.09L90,37.52H81.11Z"/><path class="cls-4" d="M144.82,30.92c-.57,1.53-2.27,7.17-12.06,7.17-8,0-11.28-4.5-11.28-10,0-10.4,8-13.81,13.59-13.81,5,0,11.1,2.8,11.1,9.92a14.09,14.09,0,0,1-.44,3.93H129.57c0,2.4.83,4.41,3.54,4.41a3.7,3.7,0,0,0,3.41-1.62ZM138,23.62a4.3,4.3,0,0,0,.09-.74,3,3,0,0,0-3.28-3.06c-2.32,0-3.85,1.4-4.5,3.8Z"/><path class="cls-4" d="M161.95,34.94h-.09a6.82,6.82,0,0,1-6,3.15c-7.3,0-8.3-6.47-8.3-9.22,0-8.61,4.5-14.6,11.28-14.6,2.62,0,5.07.79,6.55,3.36l2.36-11.32h8.65l-6.47,31.2h-8.48Zm1.16-10.18c0-2.53-.87-4.2-3.1-4.2-3.45,0-4.59,4.24-4.59,7.52,0,2.05.92,3.72,3.19,3.72C162,31.79,163.11,27.47,163.11,24.76Z"/><path class="cls-4" d="M177.06,14.84h8.65L181,37.52h-8.65Zm9.13-2.45h-8.65l1.27-6.07h8.65Z"/><path class="cls-4" d="M215.1,6.31h24.08l-1.78,8.52H222.93l-.83,3.89h12.28l-1.53,7.43H220.57L218.2,37.52h-9.61Z"/><path class="cls-4" d="M239.8,14.84h8.65l-4.72,22.68h-8.65Z"/><path class="cls-4" d="M291.2,24.19c0-7.12-6.07-9.92-11.1-9.92a14.74,14.74,0,0,0-8.16,2.45A11.84,11.84,0,0,0,268.08,21a15,15,0,0,0-1.57,7c0,5.51,3.23,10,11.27,10,9.79,0,11.49-5.64,12.06-7.17h-8.3a3.71,3.71,0,0,1-3.41,1.62c-2.71,0-3.54-2-3.54-4.41h16.17A14.09,14.09,0,0,0,291.2,24.19ZM283,23.62h-7.69c.66-2.4,2.18-3.8,4.5-3.8a3,3,0,0,1,3.28,3.06A4.37,4.37,0,0,1,283,23.62Z"/><path class="cls-2" d="M265.81,22l.92-2A14.42,14.42,0,0,0,265.81,22Z"/><path class="cls-4" d="M269.1,14.79a10.67,10.67,0,0,0-3.38-.52h-.06a8.52,8.52,0,0,0-2.5.41,9.55,9.55,0,0,0-4.56,3.69h-.09l.14-.66.61-2.88H250.9l-4.72,22.68h8.65L257.06,27c1-3.9,2.86-5.24,6.21-5.25h0a10.1,10.1,0,0,1,2.5.31Z"/><path class="cls-4" d="M198.49,14.27c-5.55,0-10.23,1.4-11.58,7.43H195c.48-1.7,1.7-2.32,3.45-2.32,1.31,0,2.71.39,2.71,2,0,2.8-3.89,2.45-6.34,2.62-6.51.48-11,2.1-11,8.08,0,4.33,3.45,6,7.34,6,2.53,0,5.46-.92,7-2.75l.12-.16h0l-.48,2.35h8.28l3-14.16a23.15,23.15,0,0,0,.33-3.06C209.5,14.79,202.6,14.27,198.49,14.27Zm1.15,14.63C199,31.42,197.78,33,195.3,33c-1.4,0-2.75-.39-2.75-2s1.35-2.4,2.8-2.53a12.54,12.54,0,0,0,4.59-1Z"/><polygon class="cls-4" points="248.93 12.39 240.28 12.39 241.54 6.31 250.2 6.31 248.93 12.39"/></g></g></svg>