<svg id="Layer_1" data-name="Layer 1" xmlns="http://www.w3.org/2000/svg" width="72" height="72" viewBox="0 0 72 72">
  <defs>
    <style>
      .cls-1 {
        fill: #07f;
      }

      .cls-2 {
        fill: #fff;
      }
    </style>
  </defs>
  <title>mf_round</title>
  <circle class="cls-1" cx="36" cy="36" r="36"/>
  <path id="flame" class="cls-2" d="M58.6642,24.7275a20.4093,20.4093,0,0,0-12.4493-4.4941,20.64,20.64,0,0,0-11.875,2.87q-.4068.2606-.7945.5488a10.5421,10.5421,0,0,1,3.0768-.5109,3.0454,3.0454,0,0,1,3.263,2.77,3.0456,3.0456,0,0,1-3.2457,2.79c-2.3521.0072-4.6745-.7909-6.9713-1.2149a40.6352,40.6352,0,0,0-7.3666-.7538c-7.9031,0-10.339,4.08-10.339,4.08.2008-.1516.4251-.3216.6768-.5138a5.7206,5.7206,0,0,1,2.306-1.1535,1.7085,1.7085,0,0,1,1.2405,3.1024C13.2166,34.0971,8.383,33.34,5.9476,40.0832a4.4751,4.4751,0,0,1,1.4469-1.7585,11.896,11.896,0,0,1,5.4128-1.9227,19.24,19.24,0,0,1,7.8622.386c1.4722.3989,3.1757.9588,4.0214,2.33.7116,1.154.7156,2.7358-.6485,3.39a7.0634,7.0634,0,0,1-3.2489.5507l-.0451-.0011a37.0084,37.0084,0,0,1,8.3484,2.1159c4.6155,1.9638,8.9009,4.71,13.8078,5.95a18.9492,18.9492,0,0,0,11.4113-.4165,15.334,15.334,0,0,0,4.3483-25.98ZM24.683,39.0231l-.0181-.0221c-.0146-.0169-.0307-.0329-.0455-.05.0148.0167.0309.0327.0455.05l.019.021Zm31.7761-3.5294a6.3183,6.3183,0,0,1-4.9227,7.457l-.0013,0C45.262,44.2326,38.11,39.0242,32.6,36.48c9.3491.567,12.0656-5.0277,16.4023-5.91A6.3216,6.3216,0,0,1,56.4591,35.4937Z"/>
</svg>
